<?xml version="1.0" encoding="UTF-8" standalone="no"?>
<!-- Created with Inkscape (http://www.inkscape.org/) -->

<svg
   width="210mm"
   height="297mm"
   viewBox="0 0 210 297"
   version="1.1"
   id="svg5"
   xml:space="preserve"
   inkscape:version="1.2.2 (b0a8486, 2022-12-01)"
   sodipodi:docname="chemgen_flowchart.svg"
   xmlns:inkscape="http://www.inkscape.org/namespaces/inkscape"
   xmlns:sodipodi="http://sodipodi.sourceforge.net/DTD/sodipodi-0.dtd"
   xmlns:xlink="http://www.w3.org/1999/xlink"
   xmlns="http://www.w3.org/2000/svg"
   xmlns:svg="http://www.w3.org/2000/svg"><sodipodi:namedview
     id="namedview7"
     pagecolor="#ffffff"
     bordercolor="#000000"
     borderopacity="0.25"
     inkscape:showpageshadow="2"
     inkscape:pageopacity="0.0"
     inkscape:pagecheckerboard="0"
     inkscape:deskcolor="#d1d1d1"
     inkscape:document-units="mm"
     showgrid="false"
     inkscape:zoom="2.4826207"
     inkscape:cx="214.69248"
     inkscape:cy="354.46413"
     inkscape:window-width="1549"
     inkscape:window-height="834"
     inkscape:window-x="0"
     inkscape:window-y="25"
     inkscape:window-maximized="0"
     inkscape:current-layer="layer1"><inkscape:grid
       type="xygrid"
       id="grid686" /></sodipodi:namedview><defs
     id="defs2"><marker
       style="overflow:visible"
       id="TriangleStart"
       refX="0"
       refY="0"
       orient="auto-start-reverse"
       inkscape:stockid="TriangleStart"
       markerWidth="5.3244081"
       markerHeight="6.155385"
       viewBox="0 0 5.3244081 6.1553851"
       inkscape:isstock="true"
       inkscape:collect="always"
       preserveAspectRatio="xMidYMid"><path
         transform="scale(0.5)"
         style="fill:context-stroke;fill-rule:evenodd;stroke:context-stroke;stroke-width:1pt"
         d="M 5.77,0 -2.88,5 V -5 Z"
         id="path135" /></marker><linearGradient
       inkscape:collect="always"
       id="linearGradient4576"><stop
         style="stop-color:#fff203;stop-opacity:1;"
         offset="0"
         id="stop4572" /><stop
         style="stop-color:#ff0353;stop-opacity:1;"
         offset="1"
         id="stop4574" /></linearGradient><clipPath
       clipPathUnits="userSpaceOnUse"
       id="clipPath2907"><path
         style="fill:#b0b0b0;fill-opacity:1;stroke-width:0.379312"
         d="m -114.80797,251.42325 c -12.8016,-1.19195 -26.2762,-6.9918 -35.62716,-15.33492 -11.09008,-9.89483 -18.98367,-23.78322 -21.85261,-38.44858 -0.81121,-4.14673 -0.67899,-16.24728 0.2266,-20.73607 2.28691,-11.33586 7.59774,-22.83166 17.76234,-38.44829 8.46019,-12.99803 10.38506,-17.39273 10.68864,-24.40353 0.21277,-4.91339 -0.23164,-7.5109 -2.52201,-14.740659 -1.60151,-5.055325 -1.74629,-6.687683 -0.59315,-6.687683 0.99889,0 2.01201,0.871749 5.81385,5.002575 8.64652,9.394777 13.02438,15.881207 14.3043,21.193877 0.33906,1.40729 0.7438,4.65521 0.89944,7.2176 l 0.28298,4.6589 0.88495,-2.53291 c 2.61678,-7.48978 3.94207,-16.50891 3.62807,-24.69044 -0.2579,-6.719466 -0.75652,-9.094718 -3.67911,-17.525886 -4.93128,-14.225839 -5.5457,-16.890203 -5.53422,-23.998531 0.009,-5.580827 0.59263,-8.95849 2.42932,-14.059712 1.46226,-4.06131 4.97051,-10.225633 8.0046,-14.064893 4.58019,-5.795613 14.44572,-14.575112 18.5223,-16.483278 2.312088,-1.082247 2.238367,-0.15173 -0.38132,4.812634 -3.54465,6.717136 -4.14527,8.716359 -4.38542,14.597229 -0.38744,9.486681 2.16051,18.865046 8.298819,30.546014 2.741588,5.217152 4.38745,7.87242 12.67887,20.454937 12.316979,18.691456 16.565899,27.847826 19.196058,41.367206 1.10772,5.69383 1.504392,17.36404 0.816462,24.02063 -1.15107,11.13816 -4.026951,21.97324 -8.746241,32.9521 l -0.853189,1.98484 1.226039,-1.26307 c 2.87582,-2.96272 9.133719,-10.10109 10.71408,-12.22155 5.265399,-7.06482 8.073369,-15.05833 8.82137,-25.11203 0.206031,-2.76914 0.54614,-5.19008 0.755809,-5.37986 0.689192,-0.62385 1.537181,0.46697 2.576502,3.31435 2.828869,7.75018 4.20212,15.98956 4.49145,26.94871 0.33229,12.58586 -0.99559,21.25923 -4.879102,31.869 -6.889239,18.82144 -20.180189,32.96466 -38.25389,40.70691 -8.733768,3.7413 -17.422707,5.25652 -25.715427,4.48438 z m 12.61331,-1.67782 c 11.504079,-2.07074 23.146627,-8.21968 32.900957,-17.37642 10.932782,-10.263 18.47982,-25.04591 21.32275,-41.76643 1.117912,-6.57479 1.018172,-21.90238 -0.188349,-28.94613 -0.88383,-5.15988 -2.732609,-12.34917 -3.69265,-14.3595 -0.4749,-0.99441 -0.540051,-0.72971 -0.799301,3.24792 -0.602429,9.24339 -3.75426,18.01397 -8.95882,24.92975 -1.97838,2.62884 -9.675199,11.2916 -12.078409,13.59421 -1.449869,1.38919 -2.84534,1.78186 -2.84534,0.80065 0,-0.30398 0.87912,-2.61812 1.95362,-5.14254 5.71763,-13.43317 8.273409,-24.54716 8.69225,-37.79895 0.64838,-20.51497 -4.021479,-34.0946 -20.03978,-58.274153 -10.29064,-15.533627 -14.161218,-22.311521 -17.088978,-29.92514 -3.31908,-8.631134 -4.39623,-14.371023 -4.12286,-21.969383 0.16893,-4.69492 0.33399,-5.699239 1.43541,-8.733343 0.68448,-1.885601 1.94529,-4.686934 2.80176,-6.225186 0.85651,-1.538252 1.46898,-2.796824 1.36107,-2.796824 -0.10794,0 -1.2981,0.793743 -2.64485,1.763874 -3.62032,2.607865 -11.68355,10.286798 -14.31424,13.632017 -7.91953,10.0706 -11.72926,22.032267 -10.26838,32.240294 0.62033,4.334616 1.73649,8.330698 4.77505,17.095846 4.00364,11.549015 4.17338,12.444738 4.18015,22.059678 0.005,9.01681 -0.36581,11.66421 -2.93339,20.86632 -1.24802,4.47282 -2.28121,6.56064 -3.24662,6.56064 -0.46559,0 -0.63101,-1.09969 -0.86501,-5.75075 -0.47646,-9.4702 -2.21946,-13.90628 -8.3769,-21.31985 -4.18544,-5.03927 -10.7082,-12.170892 -10.93992,-11.961131 -0.0974,0.08815 0.39279,1.923296 1.08929,4.078108 2.08178,6.440503 2.75767,10.013383 2.76339,14.607823 0.009,7.78104 -1.78723,12.16069 -10.65483,25.96863 -14.68909,22.87274 -19.43317,35.94924 -18.71171,51.57668 0.7442,16.12059 9.06536,32.99293 21.96773,44.54272 13.07521,11.70454 31.97028,17.58078 47.52691,14.78057 z"
         id="path2909" /></clipPath><linearGradient
       inkscape:collect="always"
       xlink:href="#linearGradient4576"
       id="linearGradient4578"
       x1="98.883942"
       y1="217.22084"
       x2="99.636925"
       y2="34.32827"
       gradientUnits="userSpaceOnUse"
       gradientTransform="matrix(0.15303059,0,0,0.15303059,37.771655,70.544232)" /><marker
       style="overflow:visible"
       id="TriangleStart-5"
       refX="0"
       refY="0"
       orient="auto-start-reverse"
       inkscape:stockid="TriangleStart"
       markerWidth="5.3244081"
       markerHeight="6.155385"
       viewBox="0 0 5.3244081 6.1553851"
       inkscape:isstock="true"
       inkscape:collect="always"
       preserveAspectRatio="xMidYMid"><path
         transform="scale(0.5)"
         style="fill:context-stroke;fill-rule:evenodd;stroke:context-stroke;stroke-width:1pt"
         d="M 5.77,0 -2.88,5 V -5 Z"
         id="path135-4" /></marker><marker
       style="overflow:visible"
       id="TriangleStart-5-8"
       refX="0"
       refY="0"
       orient="auto-start-reverse"
       inkscape:stockid="TriangleStart"
       markerWidth="5.3244081"
       markerHeight="6.155385"
       viewBox="0 0 5.3244081 6.1553851"
       inkscape:isstock="true"
       inkscape:collect="always"
       preserveAspectRatio="xMidYMid"><path
         transform="scale(0.5)"
         style="fill:context-stroke;fill-rule:evenodd;stroke:context-stroke;stroke-width:1pt"
         d="M 5.77,0 -2.88,5 V -5 Z"
         id="path135-4-0" /></marker></defs><g
     inkscape:label="Layer 1"
     inkscape:groupmode="layer"
     id="layer1"><rect
       style="fill:#ff8300;fill-opacity:1;stroke:#000d0d;stroke-width:0.264999;stroke-opacity:1"
       id="rect641-0"
       width="16.371557"
       height="9.5563812"
       x="-78.548645"
       y="94.954033"
       transform="scale(-1,1)" /><rect
       style="fill:#00ff02;fill-opacity:1;stroke:#000d0d;stroke-width:0.264999;stroke-opacity:1"
       id="rect641-0-0"
       width="16.371557"
       height="9.5563812"
       x="-33.072918"
       y="95.25"
       transform="scale(-1,1)" /><g
       id="g587"
       transform="translate(17.175145,-5.4169217)"><path
         style="fill:url(#linearGradient4578);fill-opacity:1;stroke:#000d0d;stroke-width:0.242838;stroke-dasharray:none;stroke-opacity:1"
         d="m 53.754391,106.65638 c 1.916512,-0.0952 3.832817,-0.90382 5.23113,-1.98966 1.777084,-1.37996 2.848885,-3.37367 3.462618,-5.32271 0.540846,-1.717576 0.404791,-4.249543 0.101842,-5.323221 -0.302951,-1.073679 -0.529161,-1.209887 -0.529161,-1.209887 0,0 -0.767118,0.933792 -0.968947,1.738406 -0.201829,0.804619 -0.197154,1.907412 -0.904111,1.918816 -0.832038,-0.42552 -0.686767,-1.255537 -0.79488,-2.208171 -0.113512,-1.000206 -0.521889,-2.921446 -0.969597,-3.535992 0.04263,0.827753 0.406109,2.233942 -0.344932,2.65542 -0.802536,0.450379 -0.939494,0.08155 -1.388261,-0.549302 -0.448767,-0.630855 0.06568,-1.663455 -0.134252,-3.149291 -0.199936,-1.485837 -3.819904,-4.201636 -2.800545,-6.233914 -1.116005,0.175803 -1.561424,1.258495 -1.908648,3.586887 -0.100348,1.510885 0.621733,1.327793 0.763536,2.764883 0.260411,1.813505 -0.270754,3.065189 -0.405261,3.287609 -0.353188,-0.545926 -1.14738,-1.228747 -1.274574,-1.93304 -0.127194,-0.704292 0.333054,-1.245423 0.162513,-1.727127 C 50.711105,88.460776 49.4124,87.240781 49.4124,87.240781 l -1.018416,-1.092654 c 0,0 0.544376,1.387798 0.611051,2.101257 0.06668,0.713459 0.116684,1.269615 -0.203684,2.101255 -0.320368,0.83164 -1.381663,1.752271 -1.934993,2.689609 -0.861461,1.4593 -2.051483,3.272817 -2.138676,5.12048 -0.08627,1.828041 0.374331,3.540642 1.629468,5.242852 0.671596,0.9108 1.502579,1.72977 2.631324,2.24842 1.359724,0.62478 3.212468,1.0815 4.765917,1.00438 z"
         id="path4547"
         sodipodi:nodetypes="saazczcscszzcccczscczzsasss"
         inkscape:export-filename="../../chemgen.png"
         inkscape:export-xdpi="96"
         inkscape:export-ydpi="96" /><path
         style="fill:#000000;stroke-width:0.0239889"
         d="m 50.312346,101.19426 c -0.02111,-0.005 -0.09857,-0.0969 -0.172135,-0.20515 -0.26102,-0.38413 -0.547046,-0.64584 -0.940958,-0.86096 -0.173861,-0.0949 -0.19263,-0.11222 -0.199546,-0.183696 -0.01542,-0.159401 -0.279843,-0.147726 3.34613,-0.147726 h 3.296642 l 0.05888,0.05888 c 0.07076,0.07076 0.07461,0.132279 0.01302,0.208342 l -0.04585,0.0566 -2.989605,0.006 -2.989598,0.006 0.216806,0.20632 c 0.244141,0.23234 0.404405,0.43416 0.508488,0.64035 0.0527,0.10439 0.06405,0.14804 0.04459,0.17148 -0.03038,0.0366 -0.09223,0.0546 -0.146868,0.0428 z"
         id="path912" /><path
         style="fill:#000000;stroke-width:0.0239889"
         d="m 49.069375,99.387222 c -0.08225,-0.02002 -0.13194,-0.08219 -0.13194,-0.165019 0,-0.164419 -0.218051,-0.153568 3.08647,-0.153568 h 2.979841 L 54.72082,98.78676 c -0.204619,-0.203853 -0.313771,-0.334845 -0.394366,-0.473278 -0.06129,-0.105276 -0.11144,-0.208369 -0.11144,-0.229095 0,-0.05659 0.04974,-0.09526 0.12253,-0.09526 0.05505,0 0.08623,0.03205 0.204365,0.209904 0.243411,0.366501 0.552249,0.645048 0.972995,0.877565 0.08823,0.04876 0.167219,0.110091 0.175536,0.136299 0.02287,0.07204 -0.0092,0.143702 -0.07569,0.168967 -0.06038,0.02296 -6.451668,0.02822 -6.545379,0.0054 z"
         id="path1012" /><text
         xml:space="preserve"
         style="font-size:8.63771px;line-height:0;letter-spacing:-0.384649px;word-spacing:0px;fill:#ff3737;fill-opacity:1;stroke:#000000;stroke-width:0.191288;stroke-dasharray:none;stroke-opacity:1"
         x="47.254807"
         y="102.60826"
         id="text1094"><tspan
           sodipodi:role="line"
           id="tspan1092"
           style="font-style:normal;font-variant:normal;font-weight:normal;font-stretch:normal;font-size:8.63771px;font-family:Georgia;-inkscape-font-specification:Georgia;fill:#ff3737;fill-opacity:1;stroke:#000000;stroke-width:0.191288;stroke-dasharray:none;stroke-opacity:1"
           x="47.254807"
           y="102.60826">CG</tspan></text></g><text
       xml:space="preserve"
       style="font-size:2.82222px;fill:#000000;fill-opacity:1;stroke:none;stroke-width:0.264999;stroke-opacity:1"
       x="24.887138"
       y="99.21875"
       id="text1452"><tspan
         sodipodi:role="line"
         id="tspan1450"
         style="font-style:normal;font-variant:normal;font-weight:bold;font-stretch:normal;font-size:2.82222px;font-family:Arial;-inkscape-font-specification:'Arial Bold';text-align:center;text-anchor:middle;fill:#000000;fill-opacity:1;stroke:none;stroke-width:0.265"
         x="24.887138"
         y="99.21875">Chemical </tspan><tspan
         sodipodi:role="line"
         style="font-style:normal;font-variant:normal;font-weight:bold;font-stretch:normal;font-size:2.82222px;font-family:Arial;-inkscape-font-specification:'Arial Bold';text-align:center;text-anchor:middle;fill:#000000;fill-opacity:1;stroke:none;stroke-width:0.265"
         x="24.887138"
         y="102.7792"
         id="tspan1454">Model</tspan></text><rect
       style="fill:#00edff;fill-opacity:1;stroke:#000d0d;stroke-width:0.264999;stroke-opacity:1"
       id="rect641-0-0-1"
       width="16.371557"
       height="9.5563812"
       x="-55.81078"
       y="95.25"
       transform="scale(-1,1)" /><text
       xml:space="preserve"
       style="font-size:2.82222px;fill:#000000;fill-opacity:1;stroke:none;stroke-width:0.264999;stroke-opacity:1"
       x="47.625004"
       y="99.21875"
       id="text1452-2"><tspan
         sodipodi:role="line"
         id="tspan1450-3"
         style="font-style:normal;font-variant:normal;font-weight:bold;font-stretch:normal;font-size:2.82222px;font-family:Arial;-inkscape-font-specification:'Arial Bold';text-align:center;text-anchor:middle;fill:#000000;fill-opacity:1;stroke:none;stroke-width:0.265"
         x="47.625004"
         y="99.21875">Cantera </tspan><tspan
         sodipodi:role="line"
         style="font-style:normal;font-variant:normal;font-weight:bold;font-stretch:normal;font-size:2.82222px;font-family:Arial;-inkscape-font-specification:'Arial Bold';text-align:center;text-anchor:middle;fill:#000000;fill-opacity:1;stroke:none;stroke-width:0.265"
         x="47.625004"
         y="102.7792"
         id="tspan1454-7">Interpreter</tspan></text><rect
       style="fill:#00edff;fill-opacity:1;stroke:#000d0d;stroke-width:0.264999;stroke-opacity:1"
       id="rect641-0-0-1-4"
       width="16.371557"
       height="9.5563812"
       x="-55.810776"
       y="82.020836"
       transform="scale(-1,1)" /><text
       xml:space="preserve"
       style="font-size:2.82222px;fill:#000000;fill-opacity:1;stroke:none;stroke-width:0.264999;stroke-opacity:1"
       x="47.625"
       y="85.989586"
       id="text1452-2-3"><tspan
         sodipodi:role="line"
         style="font-style:normal;font-variant:normal;font-weight:bold;font-stretch:normal;font-size:2.82222px;font-family:Arial;-inkscape-font-specification:'Arial Bold';text-align:center;text-anchor:middle;fill:#000000;fill-opacity:1;stroke:none;stroke-width:0.265"
         x="47.625"
         y="85.989586"
         id="tspan1454-7-7">Static</tspan><tspan
         sodipodi:role="line"
         style="font-style:normal;font-variant:normal;font-weight:bold;font-stretch:normal;font-size:2.82222px;font-family:Arial;-inkscape-font-specification:'Arial Bold';text-align:center;text-anchor:middle;fill:#000000;fill-opacity:1;stroke:none;stroke-width:0.265"
         x="47.625"
         y="89.550034"
         id="tspan3630">Files</tspan></text><rect
       style="fill:#ff1f00;fill-opacity:1;stroke:#000d0d;stroke-width:0.264999;stroke-opacity:1"
       id="rect641-0-0-1-4-0"
       width="16.371557"
       height="9.5563812"
       x="-101.86459"
       y="95.25"
       transform="scale(-1,1)" /><text
       xml:space="preserve"
       style="font-size:2.82222px;fill:#000000;fill-opacity:1;stroke:none;stroke-width:0.264999;stroke-opacity:1"
       x="93.67881"
       y="99.21875"
       id="text1452-2-3-0"><tspan
         sodipodi:role="line"
         style="font-style:normal;font-variant:normal;font-weight:bold;font-stretch:normal;font-size:2.82222px;font-family:Arial;-inkscape-font-specification:'Arial Bold';text-align:center;text-anchor:middle;fill:#000000;fill-opacity:1;stroke:none;stroke-width:0.265"
         x="93.67881"
         y="99.21875"
         id="tspan3630-7">Generated</tspan><tspan
         sodipodi:role="line"
         style="font-style:normal;font-variant:normal;font-weight:bold;font-stretch:normal;font-size:2.82222px;font-family:Arial;-inkscape-font-specification:'Arial Bold';text-align:center;text-anchor:middle;fill:#000000;fill-opacity:1;stroke:none;stroke-width:0.265"
         x="93.67881"
         y="102.7792"
         id="tspan6832">Code</tspan></text><text
       xml:space="preserve"
       style="font-size:2.82222px;fill:#000000;fill-opacity:1;stroke:none;stroke-width:0.264999;stroke-opacity:1"
       x="70.379166"
       y="103.45207"
       id="text1452-2-3-2"><tspan
         sodipodi:role="line"
         style="font-style:normal;font-variant:normal;font-weight:bold;font-stretch:normal;font-size:2.82222px;font-family:Arial;-inkscape-font-specification:'Arial Bold';text-align:center;text-anchor:middle;fill:#000000;fill-opacity:1;stroke:none;stroke-width:0.265"
         x="70.379166"
         y="103.45207"
         id="tspan3630-4">ChemGen</tspan></text><path
       style="fill:#000000;fill-opacity:1;stroke:#000d0d;stroke-width:0.264999;stroke-opacity:1;marker-end:url(#TriangleStart)"
       d="m 33.072916,100.54167 5.291667,0"
       id="path2425"
       sodipodi:nodetypes="cc" /><path
       style="fill:none;fill-opacity:1;stroke:#000d0d;stroke-width:0.264999;stroke-opacity:1;marker-end:url(#TriangleStart)"
       d="m 55.562499,87.312499 c 0,0 2.645834,1.322918 2.645834,3.968751 0.945569,6.541965 0,7.937497 3.96875,9.26042"
       id="path4370"
       sodipodi:nodetypes="ccc" /><path
       style="fill:none;fill-opacity:1;stroke:#000d0d;stroke-width:0.264999;stroke-opacity:1;marker-end:url(#TriangleStart-5)"
       d="m 55.5625,100.54167 c 6.614583,0 0,0 6.614583,0"
       id="path4370-4"
       sodipodi:nodetypes="cc" /><path
       style="fill:none;fill-opacity:1;stroke:#000d0d;stroke-width:0.264999;stroke-opacity:1;marker-end:url(#TriangleStart-5-8)"
       d="m 78.845833,100.54167 c 6.614583,0 0,0 6.614583,0"
       id="path4370-4-5"
       sodipodi:nodetypes="cc" /></g></svg>
