<?xml version="1.0" encoding="UTF-8" standalone="no"?>
<!-- Created with Inkscape (http://www.inkscape.org/) -->

<svg
   width="210mm"
   height="297mm"
   viewBox="0 0 210 297"
   version="1.1"
   id="svg5"
   xml:space="preserve"
   inkscape:version="1.2.2 (b0a8486, 2022-12-01)"
   sodipodi:docname="chemgen_sybol.svg"
   xmlns:inkscape="http://www.inkscape.org/namespaces/inkscape"
   xmlns:sodipodi="http://sodipodi.sourceforge.net/DTD/sodipodi-0.dtd"
   xmlns:xlink="http://www.w3.org/1999/xlink"
   xmlns="http://www.w3.org/2000/svg"
   xmlns:svg="http://www.w3.org/2000/svg"><sodipodi:namedview
     id="namedview7"
     pagecolor="#ffffff"
     bordercolor="#000000"
     borderopacity="0.25"
     inkscape:showpageshadow="2"
     inkscape:pageopacity="0.0"
     inkscape:pagecheckerboard="0"
     inkscape:deskcolor="#d1d1d1"
     inkscape:document-units="mm"
     showgrid="false"
     inkscape:zoom="0.76555893"
     inkscape:cx="86.211521"
     inkscape:cy="634.83029"
     inkscape:window-width="1549"
     inkscape:window-height="834"
     inkscape:window-x="0"
     inkscape:window-y="25"
     inkscape:window-maximized="0"
     inkscape:current-layer="layer1"><inkscape:grid
       type="xygrid"
       id="grid686" /></sodipodi:namedview><defs
     id="defs2"><linearGradient
       inkscape:collect="always"
       id="linearGradient4576"><stop
         style="stop-color:#fff203;stop-opacity:1;"
         offset="0"
         id="stop4572" /><stop
         style="stop-color:#ff0353;stop-opacity:1;"
         offset="1"
         id="stop4574" /></linearGradient><clipPath
       clipPathUnits="userSpaceOnUse"
       id="clipPath2907"><path
         style="fill:#b0b0b0;fill-opacity:1;stroke-width:0.379312"
         d="m -114.80797,251.42325 c -12.8016,-1.19195 -26.2762,-6.9918 -35.62716,-15.33492 -11.09008,-9.89483 -18.98367,-23.78322 -21.85261,-38.44858 -0.81121,-4.14673 -0.67899,-16.24728 0.2266,-20.73607 2.28691,-11.33586 7.59774,-22.83166 17.76234,-38.44829 8.46019,-12.99803 10.38506,-17.39273 10.68864,-24.40353 0.21277,-4.91339 -0.23164,-7.5109 -2.52201,-14.740659 -1.60151,-5.055325 -1.74629,-6.687683 -0.59315,-6.687683 0.99889,0 2.01201,0.871749 5.81385,5.002575 8.64652,9.394777 13.02438,15.881207 14.3043,21.193877 0.33906,1.40729 0.7438,4.65521 0.89944,7.2176 l 0.28298,4.6589 0.88495,-2.53291 c 2.61678,-7.48978 3.94207,-16.50891 3.62807,-24.69044 -0.2579,-6.719466 -0.75652,-9.094718 -3.67911,-17.525886 -4.93128,-14.225839 -5.5457,-16.890203 -5.53422,-23.998531 0.009,-5.580827 0.59263,-8.95849 2.42932,-14.059712 1.46226,-4.06131 4.97051,-10.225633 8.0046,-14.064893 4.58019,-5.795613 14.44572,-14.575112 18.5223,-16.483278 2.312088,-1.082247 2.238367,-0.15173 -0.38132,4.812634 -3.54465,6.717136 -4.14527,8.716359 -4.38542,14.597229 -0.38744,9.486681 2.16051,18.865046 8.298819,30.546014 2.741588,5.217152 4.38745,7.87242 12.67887,20.454937 12.316979,18.691456 16.565899,27.847826 19.196058,41.367206 1.10772,5.69383 1.504392,17.36404 0.816462,24.02063 -1.15107,11.13816 -4.026951,21.97324 -8.746241,32.9521 l -0.853189,1.98484 1.226039,-1.26307 c 2.87582,-2.96272 9.133719,-10.10109 10.71408,-12.22155 5.265399,-7.06482 8.073369,-15.05833 8.82137,-25.11203 0.206031,-2.76914 0.54614,-5.19008 0.755809,-5.37986 0.689192,-0.62385 1.537181,0.46697 2.576502,3.31435 2.828869,7.75018 4.20212,15.98956 4.49145,26.94871 0.33229,12.58586 -0.99559,21.25923 -4.879102,31.869 -6.889239,18.82144 -20.180189,32.96466 -38.25389,40.70691 -8.733768,3.7413 -17.422707,5.25652 -25.715427,4.48438 z m 12.61331,-1.67782 c 11.504079,-2.07074 23.146627,-8.21968 32.900957,-17.37642 10.932782,-10.263 18.47982,-25.04591 21.32275,-41.76643 1.117912,-6.57479 1.018172,-21.90238 -0.188349,-28.94613 -0.88383,-5.15988 -2.732609,-12.34917 -3.69265,-14.3595 -0.4749,-0.99441 -0.540051,-0.72971 -0.799301,3.24792 -0.602429,9.24339 -3.75426,18.01397 -8.95882,24.92975 -1.97838,2.62884 -9.675199,11.2916 -12.078409,13.59421 -1.449869,1.38919 -2.84534,1.78186 -2.84534,0.80065 0,-0.30398 0.87912,-2.61812 1.95362,-5.14254 5.71763,-13.43317 8.273409,-24.54716 8.69225,-37.79895 0.64838,-20.51497 -4.021479,-34.0946 -20.03978,-58.274153 -10.29064,-15.533627 -14.161218,-22.311521 -17.088978,-29.92514 -3.31908,-8.631134 -4.39623,-14.371023 -4.12286,-21.969383 0.16893,-4.69492 0.33399,-5.699239 1.43541,-8.733343 0.68448,-1.885601 1.94529,-4.686934 2.80176,-6.225186 0.85651,-1.538252 1.46898,-2.796824 1.36107,-2.796824 -0.10794,0 -1.2981,0.793743 -2.64485,1.763874 -3.62032,2.607865 -11.68355,10.286798 -14.31424,13.632017 -7.91953,10.0706 -11.72926,22.032267 -10.26838,32.240294 0.62033,4.334616 1.73649,8.330698 4.77505,17.095846 4.00364,11.549015 4.17338,12.444738 4.18015,22.059678 0.005,9.01681 -0.36581,11.66421 -2.93339,20.86632 -1.24802,4.47282 -2.28121,6.56064 -3.24662,6.56064 -0.46559,0 -0.63101,-1.09969 -0.86501,-5.75075 -0.47646,-9.4702 -2.21946,-13.90628 -8.3769,-21.31985 -4.18544,-5.03927 -10.7082,-12.170892 -10.93992,-11.961131 -0.0974,0.08815 0.39279,1.923296 1.08929,4.078108 2.08178,6.440503 2.75767,10.013383 2.76339,14.607823 0.009,7.78104 -1.78723,12.16069 -10.65483,25.96863 -14.68909,22.87274 -19.43317,35.94924 -18.71171,51.57668 0.7442,16.12059 9.06536,32.99293 21.96773,44.54272 13.07521,11.70454 31.97028,17.58078 47.52691,14.78057 z"
         id="path2909" /></clipPath><linearGradient
       inkscape:collect="always"
       xlink:href="#linearGradient4576"
       id="linearGradient4578"
       x1="98.883942"
       y1="217.22084"
       x2="99.636925"
       y2="34.32827"
       gradientUnits="userSpaceOnUse" /></defs><g
     inkscape:label="Layer 1"
     inkscape:groupmode="layer"
     id="layer1"><path
       style="fill:url(#linearGradient4578);fill-opacity:1;stroke:#000d0d;stroke-width:1.58686;stroke-dasharray:none;stroke-opacity:1"
       d="m 104.44144,235.97989 c 12.52372,-0.62177 25.04609,-5.90612 34.18356,-13.00169 11.61261,-9.01756 18.61644,-22.04573 22.62697,-34.78199 3.53423,-11.22374 2.64516,-27.76923 0.6655,-34.78534 -1.97968,-7.01611 -3.45788,-7.90618 -3.45788,-7.90618 0,0 -5.01284,6.102 -6.33172,11.35987 -1.31888,5.25788 -1.28833,12.46423 -5.90804,12.53876 -5.43707,-2.78063 -4.48778,-8.20447 -5.19426,-14.42961 -0.74176,-6.53598 -3.41035,-19.09059 -6.33597,-23.10643 0.2786,5.40908 2.65378,14.59801 -2.254,17.35223 -5.24429,2.94307 -6.13926,0.5329 -9.07179,-3.58951 -2.93253,-4.12241 0.42922,-10.87007 -0.87729,-20.57948 -1.30651,-9.70941 -24.961699,-27.456183 -18.30056,-40.736391 -7.292687,1.148813 -10.203343,8.223814 -12.472323,23.439021 -0.655743,9.87309 4.062799,8.67665 4.989432,18.06752 1.701688,11.85061 -1.76928,20.0299 -2.648238,21.48336 -2.307954,-3.56744 -7.497715,-8.02945 -8.32888,-12.63174 -0.831165,-4.60229 2.176384,-8.13839 1.061961,-11.28615 -2.233248,-6.30796 -10.719824,-14.28019 -10.719824,-14.28019 l -6.654981,-7.1401 c 0,0 3.5573,9.06876 3.992997,13.73096 0.435697,4.6622 0.762488,8.29648 -1.331,13.73095 -2.093488,5.43447 -9.028675,11.45047 -12.64449,17.57561 -5.629332,9.53602 -13.4057,21.38669 -13.975477,33.46053 -0.563725,11.94559 2.446122,23.1368 10.647993,34.2601 4.388632,5.95182 9.818813,11.30349 17.194758,14.69263 8.885305,4.08271 20.992324,7.06726 31.143552,6.56326 z"
       id="path4547"
       sodipodi:nodetypes="saazczcscszzcccczscczzsasss"
       inkscape:export-filename="../../chemgen.png"
       inkscape:export-xdpi="96"
       inkscape:export-ydpi="96" /><path
       style="fill:#000000;stroke-width:0.156759"
       d="m 81.948914,200.28695 c -0.137932,-0.0298 -0.644111,-0.6331 -1.124841,-1.34057 -1.705673,-2.51016 -3.574751,-4.22033 -6.148822,-5.62606 -1.136121,-0.62044 -1.258766,-0.73335 -1.30396,-1.20041 -0.10079,-1.04163 -1.828678,-0.96535 21.865756,-0.96535 h 21.542373 l 0.38477,0.38477 c 0.4624,0.46241 0.48754,0.86441 0.0851,1.36141 l -0.29964,0.37007 -19.535993,0.0416 -19.535956,0.0416 1.416752,1.34822 c 1.595373,1.51821 2.642643,2.83704 3.322789,4.1844 0.344358,0.68217 0.418528,0.96741 0.291383,1.12061 -0.198521,0.2392 -0.602661,0.35699 -0.959731,0.27973 z"
       id="path912" /><path
       style="fill:#000000;stroke-width:0.156759"
       d="m 73.826542,188.4786 c -0.537455,-0.13093 -0.862176,-0.53707 -0.862176,-1.07835 0,-1.07443 -1.424885,-1.00353 20.16897,-1.00353 h 19.472194 l -1.84882,-1.84193 c -1.33711,-1.33212 -2.05038,-2.18811 -2.57704,-3.09272 -0.40052,-0.68793 -0.72822,-1.3616 -0.72822,-1.49704 0,-0.36977 0.32506,-0.62248 0.80069,-0.62248 0.35971,0 0.56347,0.20928 1.33545,1.37164 1.5906,2.39496 3.60875,4.21517 6.35817,5.73457 0.57654,0.31861 1.09272,0.71941 1.14707,0.89066 0.14941,0.47075 -0.0603,0.93906 -0.49458,1.10415 -0.39455,0.15001 -42.159335,0.18422 -42.771708,0.035 z"
       id="path1012" /><text
       xml:space="preserve"
       style="font-size:56.4444px;line-height:0;letter-spacing:-2.51354px;word-spacing:0px;fill:#ff3737;fill-opacity:1;stroke:#000000;stroke-width:1.25;stroke-dasharray:none;stroke-opacity:1"
       x="61.968983"
       y="209.52692"
       id="text1094"><tspan
         sodipodi:role="line"
         id="tspan1092"
         style="font-style:normal;font-variant:normal;font-weight:normal;font-stretch:normal;font-size:56.4444px;font-family:Georgia;-inkscape-font-specification:Georgia;fill:#ff3737;fill-opacity:1;stroke:#000000;stroke-width:1.25;stroke-dasharray:none;stroke-opacity:1"
         x="61.968983"
         y="209.52692">CG</tspan></text><path
       style="fill:#000000;stroke-width:0.156759"
       d="m -135.88984,129.94732 c -0.13793,-0.0298 -0.64411,-0.6331 -1.12484,-1.34057 -1.70567,-2.51016 -3.57475,-4.22033 -6.14882,-5.62606 -1.13612,-0.62044 -1.25877,-0.73335 -1.30396,-1.20041 -0.10079,-1.04163 -1.82868,-0.96535 21.86576,-0.96535 h 21.54235 l 0.38477,0.38477 c 0.4624,0.46241 0.48754,0.86441 0.0851,1.36141 l -0.29964,0.37007 -19.53598,0.0416 -19.53595,0.0416 1.41675,1.34822 c 1.59537,1.51821 2.64264,2.83704 3.32279,4.1844 0.34436,0.68217 0.41853,0.96741 0.29138,1.12061 -0.19852,0.2392 -0.60266,0.35699 -0.95973,0.27973 z"
       id="path912-8" /><path
       style="fill:#000000;stroke-width:0.156759"
       d="m -144.01221,118.13897 c -0.53745,-0.13093 -0.86218,-0.53707 -0.86218,-1.07835 0,-1.07443 -1.42488,-1.00353 20.16897,-1.00353 h 19.47218 l -1.84882,-1.84193 c -1.33711,-1.33212 -2.05038,-2.18811 -2.57704,-3.09272 -0.40052,-0.68793 -0.72822,-1.3616 -0.72822,-1.49704 0,-0.36977 0.32506,-0.62248 0.80069,-0.62248 0.35971,0 0.56347,0.20928 1.33545,1.37164 1.5906,2.39496 3.60875,4.21517 6.35817,5.73457 0.57654,0.31861 1.09272,0.71941 1.14707,0.89066 0.14941,0.47075 -0.0603,0.93906 -0.49458,1.10415 -0.39455,0.15001 -42.15932,0.18422 -42.77169,0.035 z"
       id="path1012-0" /><text
       xml:space="preserve"
       style="font-size:56.4444px;line-height:0;letter-spacing:-2.51354px;word-spacing:0px;fill:#ff3737;fill-opacity:1;stroke:#000000;stroke-width:1.25;stroke-dasharray:none;stroke-opacity:1"
       x="-155.86977"
       y="139.18735"
       id="text1094-0"><tspan
         sodipodi:role="line"
         id="tspan1092-8"
         style="font-style:normal;font-variant:normal;font-weight:normal;font-stretch:normal;font-size:56.4444px;font-family:Georgia;-inkscape-font-specification:Georgia;fill:#ff3737;fill-opacity:1;stroke:#000000;stroke-width:1.25;stroke-dasharray:none;stroke-opacity:1"
         x="-155.86977"
         y="139.18735">CG</tspan></text></g></svg>
